<svg xmlns="http://www.w3.org/2000/svg" width="174.243" height="184.429" viewBox="0 0 174.243 184.429">
  <g id="Group_583" data-name="Group 583" transform="translate(-1388.5 -489.571)">
    <g id="status-partial-fail" transform="translate(1489.256 486.571)">
      <path id="Path_502" data-name="Path 502" d="M37.71,39.288l3.857,3.235A35.183,35.183,0,0,0,47.712,32l-4.728-1.719a30.141,30.141,0,0,1-5.271,9.012Z" transform="translate(23.543 18.501)" fill="#e8e5e8"/>
      <path id="Path_503" data-name="Path 503" d="M27,43.14l1.04,4.954a34.964,34.964,0,0,0,11.432-4.124l-2.4-4.358A31.518,31.518,0,0,1,27,43.14Z" transform="translate(16.279 24.834)" fill="#e8e5e8"/>
      <path id="Path_504" data-name="Path 504" d="M16.017,39.614,13.5,43.971a35.6,35.6,0,0,0,11.547,4.124l.874-4.952a30.591,30.591,0,0,1-9.9-3.529Z" transform="translate(7.122 24.834)" fill="#e8e5e8"/>
      <path id="Path_505" data-name="Path 505" d="M9.058,30.276,4.33,32a35.184,35.184,0,0,0,6.142,10.528l3.857-3.235a30.141,30.141,0,0,1-5.271-9.012Z" transform="translate(0.902 18.501)" fill="#e8e5e8"/>
      <path id="Path_506" data-name="Path 506" d="M25.526,33A3.776,3.776,0,1,0,29.3,36.776,3.776,3.776,0,0,0,25.526,33Z" transform="translate(12.718 20.348)" fill="#e8e5e8"/>
      <path id="Path_507" data-name="Path 507" d="M22.5,12h5.035V39.692H22.5Z" transform="translate(13.226 6.104)" fill="#e8e5e8"/>
      <path id="Path_508" data-name="Path 508" d="M73.488,38.244H68.453a30.209,30.209,0,1,0-60.418,0H3a35.244,35.244,0,0,1,70.488,0Z" transform="translate(0 0)" fill="#e8e5e8"/>
    </g>
    <path id="track_changes_FILL0_wght400_GRAD0_opsz48" d="M149.5,315a67.676,67.676,0,0,1-27.105-5.473A69.391,69.391,0,0,1,85.473,272.6a69.854,69.854,0,0,1,0-54.21A69.391,69.391,0,0,1,122.4,181.473,67.676,67.676,0,0,1,149.5,176h5.212v56.642a13.961,13.961,0,0,1,6.255,5.039,13.9,13.9,0,1,1-22.935,0,13.961,13.961,0,0,1,6.255-5.039v-18.07A30.983,30.983,0,0,0,118.225,245.5,31.145,31.145,0,0,0,149.5,276.775,31.391,31.391,0,0,0,178,232.469a31.7,31.7,0,0,0-7.645-10.251l7.471-7.471a43.7,43.7,0,0,1,9.73,13.639A41.632,41.632,0,0,1,149.5,287.2a41.921,41.921,0,0,1-31.275-69.587,40.315,40.315,0,0,1,26.063-13.639V186.6a58.818,58.818,0,0,0-53.863,58.9q0,24.672,17.2,41.874t41.874,17.2q24.672,0,41.874-17.2t17.2-41.874a57.072,57.072,0,0,0-4.952-23.8,59.792,59.792,0,0,0-13.639-19.113l7.471-7.471a71.911,71.911,0,0,1,15.724,22.5,69.783,69.783,0,0,1,.347,54.992A69.391,69.391,0,0,1,176.6,309.527,67.676,67.676,0,0,1,149.5,315Z" transform="translate(1308.5 359)" fill="#72daeb"/>
  </g>
</svg>
